<?xml version="1.0" encoding="utf-8"?>
<!-- Generator: Adobe Illustrator 22.1.0, SVG Export Plug-In . SVG Version: 6.00 Build 0)  -->
<svg version="1.1" id="Layer_1" xmlns="http://www.w3.org/2000/svg" xmlns:xlink="http://www.w3.org/1999/xlink" x="0px" y="0px"
	 viewBox="0 0 256 256" style="enable-background:new 0 0 256 256;" xml:space="preserve">
<style type="text/css">
	.st0{fill:#F25F48;}
	.st1{fill:#FFFFFF;}
</style>
<rect x="-1.7" y="-1.7" class="st0" width="260" height="259.3"/>
<g>
	<path class="st1" d="M183.9,35.4c9,0,17.6,3.6,24.1,10c6.5,6.5,10,15,10,24.1v113c0,9-3.6,17.6-10,24.1c-6.5,6.5-15,10-24.1,10
		h-113c-9,0-17.6-3.6-24.1-10c-6.5-6.5-10-15-10-24.1v-113c0-9,3.6-17.6,10-24.1c6.5-6.5,15-10,24.1-10H183.9 M183.9,14.3h-113
		c-30.3,0-55.1,24.8-55.1,55.1v113c0,30.3,24.8,55.1,55.1,55.1h113c30.3,0,55.1-24.8,55.1-55.1v-113C239,39.1,214.2,14.3,183.9,14.3
		L183.9,14.3z"/>
	<g>
		<path class="st1" d="M184.8,98.7"/>
		<path class="st1" d="M119.9,81.2c2.8-0.1,16.7-0.6,26.3,10.1c7.7,8.5,7.7,18.6,7.7,20.3c0,1.5-0.3,11.8-8.3,20.3
			c-11.4,12.1-28.3,9.3-29.6,9c0-8.4-0.1-16.4-0.1-24.8c0-0.8-0.4-1.5-1-1.9l-9-5.9c-0.4-0.2-0.8-0.2-1.2,0l-9,5.9
			c-0.7,0.4-1,1.2-1,1.9v4.5v65.3c0,1.3,1,2.3,2.3,2.3h16.6c1.3,0,2.3-1,2.3-2.3v-25l22,19.6c4.6,4.6,10.1,7.6,16.5,9
			c5.9,1.3,11.3,0.7,16.2-1.7c0.8-0.4,1.2-1.1,1.2-2l-0.2-13.6c0-1.4-1.3-2.4-2.6-2.1c-7.4,1.8-13.6,0.2-18.8-4.9l-9.4-8.8
			c4.2-1.2,10.7-3.7,17.1-9c1.8-1.5,17.4-15,17-36.9c-0.5-24.4-20.5-37.9-24.2-40.3c-13.4-8.6-26.8-8.3-30.8-8.3
			C92.2,61.9,74.7,82.4,70,90.4c-0.4,0.7-0.2,1.6,0.4,2.2c4.5,3.6,8.9,7.2,13.4,10.8c0.8,0.6,2,0.4,2.5-0.4
			C89.6,97.6,101.1,81.8,119.9,81.2z"/>
	</g>
</g>
</svg>
